<svg width="16" height="16" viewBox="0 0 16 16" fill="none" xmlns="http://www.w3.org/2000/svg">
<g clip-path="url(#clip0_78_102)">
<path fill-rule="evenodd" clip-rule="evenodd" d="M8 0C3.5875 0 0 3.5875 0 8C0 12.4125 3.5875 16 8 16C12.4125 16 16 12.4125 16 8C16 3.5875 12.4125 0 8 0Z" fill="#FF7538"/>
<path d="M6.45937 11.6594C5.4375 10.6375 4.42188 9.60627 3.39687 8.5844C3.28437 8.4719 3.28437 8.2844 3.39687 8.1719L4.575 6.99377C4.6875 6.88127 4.875 6.88127 4.9875 6.99377L6.67188 8.67815L11.0031 4.34377C11.1188 4.23127 11.3031 4.23127 11.4187 4.34377L12.6 5.52502C12.7156 5.64065 12.7156 5.82502 12.6 5.93752L6.87187 11.6594C6.75937 11.775 6.575 11.775 6.45937 11.6594Z" fill="white"/>
</g>
<defs>
<clipPath id="clip0_78_102">
<rect width="16" height="16" fill="white"/>
</clipPath>
</defs>
</svg>
